<svg width="127" height="160" viewBox="0 0 127 160" fill="none" xmlns="http://www.w3.org/2000/svg">
<path d="M49.9734 116.189C42.6134 116.155 37.1484 109.36 39.0424 102.257C40.8044 95.6483 44.1304 89.7633 48.4204 84.4483C49.7564 82.7933 50.3264 82.8013 51.6854 84.5063C55.8674 89.7553 59.1514 95.5403 60.9414 102.017C62.9514 109.29 57.4574 116.224 49.9734 116.189ZM80.4564 68.8723C64.6474 71.3023 48.7514 71.8063 32.8284 70.4063C21.8834 69.4443 10.8524 68.6443 0.855401 63.0523C-0.5946 65.3913 -0.1846 67.6963 2.1554 69.8253C3.0294 70.6213 3.3264 71.4183 3.3234 72.5773C3.2894 88.8923 3.3274 105.207 3.2684 121.522C3.2624 123.079 3.8134 123.989 5.1764 124.413C8.2634 125.374 11.3234 126.526 14.4844 127.129C36.5434 131.344 58.6934 131.355 80.8424 127.986C85.5014 127.278 90.0374 125.74 94.6114 124.516C96.1894 124.094 96.7924 123.049 96.7834 121.284C96.7034 105.919 96.7444 90.5533 96.7154 75.1883V75.1403C91.2034 74.4213 86.2934 72.0283 82.4784 68.5383C81.8044 68.6543 81.1304 68.7693 80.4564 68.8723Z" fill="#64704A"/>
<path d="M75.0932 43.5254C75.2632 42.8884 75.4482 42.2584 75.6312 41.6274C70.9832 42.4334 66.2832 42.9274 61.5492 43.1984C48.0632 43.9714 34.6262 43.6774 21.3292 41.0234C18.5412 40.4664 15.7982 39.6734 13.0502 38.9304C12.3362 38.7374 11.6842 38.3194 11.0042 38.0044C11.0002 37.8504 10.9962 37.6954 10.9932 37.5414C12.1732 37.1164 13.3322 36.6184 14.5362 36.2784C28.0792 32.4544 41.9452 31.8294 55.9002 32.2004C63.3432 32.3984 70.7332 33.0244 78.0072 34.4704C78.9173 32.0504 79.9142 29.6714 81.0022 27.3384C79.7252 27.0624 78.4382 26.8214 77.1452 26.6024C63.4582 24.2754 49.6772 24.0414 35.8682 25.0224C28.5622 25.5414 21.2932 26.4434 14.2572 28.6264C11.1482 29.5904 8.15224 30.8174 5.69324 33.0544C4.17924 34.4314 3.29124 36.0854 3.29925 38.2004C3.32425 44.8514 3.32924 51.5024 3.28525 58.1514C3.27824 59.2164 3.68024 59.8674 4.60625 60.2174C6.37825 60.8884 8.13125 61.6484 9.95424 62.1414C22.4662 65.5244 35.2942 66.1634 47.6202 66.4404C58.3992 66.4454 68.6352 66.1774 78.7362 64.4384C78.7712 64.4324 78.8052 64.4254 78.8392 64.4194C74.7392 58.6304 73.0582 51.1564 75.0932 43.5254Z" fill="#64704A"/>
<path d="M93.6158 129.545C88.2758 130.921 82.9198 132.395 77.4758 133.172C61.0328 135.521 44.5088 135.636 27.9998 133.867C18.6808 132.868 9.31376 131.868 0.890761 126.912C-0.58024 129.178 -0.244241 131.452 2.00976 133.566C3.00076 134.496 3.38476 135.431 3.33176 136.769C3.23176 139.279 3.47376 141.81 3.26876 144.307C2.93976 148.327 4.78076 151.12 8.18676 152.654C11.8248 154.292 15.6108 155.865 19.4968 156.639C38.8218 160.486 58.2478 160.363 77.6648 157.287C82.6308 156.5 87.5188 155.281 91.9388 152.693C95.1108 150.837 97.1308 148.367 96.7538 144.413C96.6008 142.807 96.7748 141.173 96.7178 139.555C96.6248 136.933 96.6158 134.533 98.9058 132.463C100.682 130.858 100.42 128.453 99.1028 127.048C97.2568 127.91 95.5198 129.054 93.6158 129.545Z" fill="#64704A"/>
<path d="M51.6852 84.5073C50.3262 82.8013 49.7562 82.7943 48.4202 84.4483C44.1302 89.7643 40.8042 95.6493 39.0422 102.257C37.1482 109.361 42.6132 116.155 49.9732 116.19C57.4572 116.224 62.9512 109.29 60.9412 102.017C59.1512 95.5413 55.8672 89.7563 51.6852 84.5073Z" fill="#E6FFC5"/>
<path opacity="0.199997" d="M59.3657 39.3114C64.3027 41.0694 69.2957 41.0374 74.2417 39.3444C74.8717 39.1284 75.3067 38.3404 75.8327 37.8174C75.3017 37.2994 74.8507 36.4844 74.2247 36.3144C71.9337 35.6924 69.5847 35.2844 67.0437 34.7504C64.5297 35.2564 61.9137 35.7134 59.3437 36.3524C58.7617 36.4964 57.8807 37.3474 57.9447 37.7414C58.0427 38.3394 58.7507 39.0924 59.3657 39.3114Z" fill="#808285"/>
<path d="M125.154 42.9757C121.061 28.1707 113.556 14.9467 103.996 2.94875C100.889 -0.951248 99.5848 -0.968262 96.5318 2.81374C90.3718 10.4457 85.0838 18.5917 81.0028 27.3387C84.6858 28.1357 88.2788 29.2437 91.6368 31.1047C95.0988 33.0237 96.9738 35.6717 96.7918 39.8927C96.5388 45.7507 96.6508 51.6277 96.7758 57.4937C96.8128 59.2247 96.1668 60.1927 94.6548 60.5787C89.3968 61.9207 84.1728 63.4917 78.8398 64.4187C79.8988 65.9137 81.1188 67.2947 82.4778 68.5377C85.0508 68.0907 87.6138 67.5387 90.1078 66.7997C93.1858 65.8887 96.1278 64.5207 99.2358 63.3127C100.454 64.6117 100.659 67.0177 98.7648 68.7257C96.6608 70.6217 96.7098 72.7687 96.7158 75.1407C97.8158 75.2847 98.9378 75.3677 100.082 75.3727C117.189 75.4527 129.75 59.6017 125.154 42.9757Z" fill="#64704A"/>
<path opacity="0.199997" d="M86.4528 39.086C87.3308 38.818 88.1698 38.426 89.0268 38.092C89.0328 37.919 89.0378 37.745 89.0428 37.57C87.9278 37.153 86.8348 36.661 85.6958 36.331C83.1498 35.592 80.5868 34.982 78.0088 34.469C77.1278 36.813 76.3348 39.198 75.6328 41.626C79.2748 40.994 82.8868 40.173 86.4528 39.086Z" fill="#808285"/>
<path d="M98.7636 68.7256C100.658 67.0176 100.454 64.6116 99.2346 63.3126C96.1266 64.5206 93.1846 65.8886 90.1076 66.7996C87.6126 67.5386 85.0506 68.0906 82.4766 68.5386C86.2916 72.0286 91.2026 74.4216 96.7146 75.1406C96.7096 72.7686 96.6596 70.6216 98.7636 68.7256Z" fill="#E6FFC5"/>
<path d="M96.777 57.4939C96.652 51.6279 96.54 45.7509 96.793 39.8929C96.975 35.6719 95.1 33.0239 91.638 31.1049C88.28 29.2439 84.688 28.1359 81.004 27.3389C79.916 29.6719 78.919 32.0499 78.009 34.4699C80.586 34.9829 83.15 35.5929 85.696 36.3309C86.835 36.6619 87.928 37.1539 89.042 37.5709C89.038 37.7449 89.032 37.9189 89.027 38.0929C88.17 38.4269 87.33 38.8189 86.453 39.0869C82.887 40.1739 79.275 40.9939 75.633 41.6269C75.45 42.2579 75.265 42.8879 75.095 43.5249C73.06 51.1569 74.741 58.6309 78.841 64.4189C84.174 63.4919 89.399 61.9209 94.657 60.5789C96.169 60.1929 96.814 59.2249 96.777 57.4939Z" fill="#E6FFC5"/>
</svg>
