<svg width="114" height="220" viewBox="0 0 114 220" fill="none" xmlns="http://www.w3.org/2000/svg">
<g clip-path="url(#clip0_3017_3198)">
<path d="M27.6634 106.663C25.8234 129.486 5.8294 146.496 -16.9936 144.656C-39.8186 142.815 -56.8296 122.821 -54.9886 99.9992C-53.1486 77.1762 -33.1546 60.1662 -10.3296 62.0062C12.4934 63.8472 29.5034 83.8402 27.6634 106.663Z" fill="#D1D1D1"/>
<path d="M113.827 45.1447C111.987 67.9677 91.9935 84.9777 69.1705 83.1377C46.3455 81.2967 29.3345 61.3027 31.1755 38.4807C33.0155 15.6577 53.0095 -1.35234 75.8345 0.487663C98.6575 2.32866 115.667 22.3217 113.827 45.1447Z" fill="#D1D1D1"/>
<path d="M70.4508 137.261C49.1158 135.541 30.2558 150.294 26.3828 170.869L108.567 177.576C108.081 156.612 91.8138 138.983 70.4508 137.261Z" fill="#D1D1D1"/>
<path d="M25.7886 175.254C23.9486 198.08 40.9616 218.074 63.7866 219.914C86.6096 221.754 106.601 204.744 108.441 181.919C108.559 180.459 108.598 179.01 108.567 177.579L26.3806 170.873C26.1126 172.302 25.9086 173.766 25.7886 175.254Z" fill="#DBDBDB"/>
</g>
<defs>
<clipPath id="clip0_3017_3198">
<rect width="114" height="220" fill="white"/>
</clipPath>
</defs>
</svg>
