<svg width="212" height="147" viewBox="0 0 212 147" fill="none" xmlns="http://www.w3.org/2000/svg">
<g opacity="0.800003">
<path d="M210.164 137.519C205.312 124.529 200.196 111.635 195.501 98.5901C193.615 93.3501 190.463 91.3531 184.943 91.4311C173.498 91.5921 162.048 91.6571 150.6 91.5721C152.234 95.8851 153.863 100.201 155.465 104.526C158.022 111.429 156.55 113.482 149.071 113.523C139.312 113.576 129.552 113.568 119.793 113.557C116.973 120.976 114.052 128.36 111.247 135.786C107.817 144.868 109.087 146.769 118.544 146.787C132.425 146.811 146.305 146.793 160.186 146.792C174.773 146.791 189.36 146.867 203.946 146.759C211.178 146.706 212.719 144.358 210.164 137.519Z" fill="#A33A24"/>
<path d="M62.2571 113.517C54.7871 113.473 53.3201 111.39 55.8861 104.489C57.4921 100.171 59.1221 95.8613 60.7571 91.5543C49.2841 91.6193 37.8101 91.5803 26.3401 91.4253C20.8061 91.3503 17.6981 93.4343 15.8181 98.6473C11.1961 111.469 6.15712 124.14 1.36312 136.9C-1.52888 144.598 -0.0688801 146.737 8.15912 146.776C22.5101 146.845 36.8621 146.795 51.2141 146.794C65.3301 146.792 79.4461 146.83 93.5621 146.778C101.846 146.747 103.392 144.623 100.559 137.05C97.6211 129.198 94.5681 121.389 91.5881 113.554C81.8111 113.565 72.0341 113.575 62.2571 113.517Z" fill="#A33A24"/>
<path d="M136.246 91.3854C141.03 91.4784 145.815 91.5364 150.6 91.5724C147.238 82.6984 143.846 73.8354 140.561 64.9324C138.884 60.3844 136.125 58.2174 131.096 58.2684C114.159 58.4394 97.2168 58.4404 80.2798 58.2554C75.2468 58.2004 72.4908 60.3434 70.8098 64.8984C67.5228 73.8064 64.1268 82.6764 60.7578 91.5544C65.7548 91.5264 70.7508 91.4844 75.7458 91.4144C81.3388 91.3364 84.2638 93.5714 86.1228 98.7864C87.8848 103.73 89.7228 108.647 91.5888 113.554C96.1628 113.549 100.738 113.544 105.312 113.544C110.139 113.545 114.966 113.551 119.793 113.557C121.565 108.893 123.298 104.216 124.934 99.5054C126.936 93.7434 130.027 91.2644 136.246 91.3854Z" fill="#A33A24"/>
<path d="M149.071 113.523C156.55 113.482 158.023 111.429 155.466 104.526C153.863 100.201 152.235 95.8852 150.6 91.5722C145.815 91.5362 141.03 91.4782 136.246 91.3852C130.027 91.2642 126.936 93.7432 124.935 99.5052C123.298 104.215 121.565 108.893 119.793 113.557C129.552 113.568 139.312 113.576 149.071 113.523Z" fill="#F2C394"/>
<path d="M75.7449 91.4143C70.7499 91.4843 65.7529 91.5263 60.7569 91.5543C59.1219 95.8613 57.4929 100.171 55.8869 104.489C53.3199 111.39 54.7869 113.473 62.2569 113.517C72.0339 113.575 81.8109 113.565 91.5879 113.554C89.7219 108.647 87.8829 103.73 86.1219 98.7863C84.2629 93.5713 81.3379 91.3353 75.7449 91.4143Z" fill="#F2C394"/>
<path d="M73.9606 24.1877C65.0106 26.7907 59.6296 32.5697 57.1096 41.5037C56.6676 43.0707 54.4926 43.0827 54.0296 41.5227C51.2066 31.9947 45.0526 25.9827 34.2146 24.2507C32.5746 23.9887 32.3706 21.7077 33.9406 21.1667C39.7206 19.1737 44.6866 17.6307 47.9316 14.3727C51.0186 11.2737 52.4226 6.49667 54.1136 1.12067C54.6106 -0.458328 56.9046 -0.338329 57.2056 1.28867C59.1046 11.5507 64.5186 18.1837 73.9886 21.1307C75.5096 21.6037 75.4906 23.7427 73.9606 24.1877Z" fill="#A33A24"/>
<path d="M39.8524 50.0104C41.1544 53.3364 43.4604 55.6574 46.7434 57.1384C48.4214 57.8954 48.4514 60.2264 46.7944 61.0294C43.7924 62.4854 41.4344 64.5674 39.9074 67.5804C39.1034 69.1664 36.8954 69.1764 36.0714 67.6004C34.4044 64.4154 31.7644 62.2604 28.1264 60.9374C26.3054 60.2754 26.2844 57.7044 28.0744 56.9634C32.2054 55.2544 33.8154 53.7304 35.9904 49.7454C36.8594 48.1524 39.1904 48.3204 39.8524 50.0104Z" fill="#A33A24"/>
</g>
</svg>
