<svg width="252" height="135" viewBox="0 0 252 135" fill="none" xmlns="http://www.w3.org/2000/svg">
<g clip-path="url(#clip0_3017_3221)">
<mask id="mask0_3017_3221" style="mask-type:luminance" maskUnits="userSpaceOnUse" x="-49" y="-50" width="348" height="348">
<path d="M-48.7422 120.396L120.858 297.996L298.958 127.996L129.358 -49.604L-48.7422 120.396Z" fill="white"/>
</mask>
<g mask="url(#mask0_3017_3221)">
<g opacity="0.100006">
<path d="M209.59 36.0101C218.912 41.1361 218.187 45.888 211.255 52.576C196.028 67.2681 180.098 81.5701 167.028 98.0691C151.505 117.665 155.441 144.86 173.015 162.936C186.564 176.872 199.639 191.268 212.876 205.506C213.542 206.222 213.738 207.375 214.342 208.758L204.819 217.852C192.616 205.073 180.555 192.892 169.008 180.241C154.085 163.89 136.675 152.475 113.906 158.146C103.312 160.785 93.0747 167.424 84.3397 174.348C71.4067 184.601 59.8997 196.663 47.9057 208.081C44.2417 211.571 41.1427 214.484 36.3177 209.438C31.6707 204.578 34.1737 200.815 37.6577 197.456C49.0477 186.471 60.2557 175.243 72.2797 164.983C98.0847 142.962 100.339 108.396 76.9737 84.0401C66.0237 72.6251 54.8287 61.433 44.2107 49.718C40.7357 45.885 32.7387 42.2971 40.6607 35.0491C48.3927 27.9761 51.5737 35.938 55.3097 39.6241C65.8197 49.9901 75.8707 60.8311 85.9357 71.6391C109.804 97.2711 138.627 99.3521 165.131 76.4771C178.751 64.7211 191.412 51.856 204.566 39.5571C206.083 38.138 207.983 37.1281 209.59 36.0101Z" fill="#808285"/>
<path d="M65.7682 115.997C65.1372 121.633 64.7132 125.414 63.8332 133.268C43.2962 131.857 22.9752 130.461 1.53516 128.989C2.20516 123.862 2.70116 120.076 3.48016 114.121C23.4482 114.723 43.8322 115.336 65.7682 115.997Z" fill="#808285"/>
<path d="M109.941 64.6746C105.894 66.7496 102.491 68.4946 97.6168 70.9946C89.9218 51.2416 82.4748 32.1256 74.6758 12.1076C79.3238 10.2816 82.8478 8.89763 88.0398 6.85863C95.4258 26.3556 102.569 45.2136 109.941 64.6746Z" fill="#808285"/>
<path d="M168.868 9.52315C173.503 11.3932 176.776 12.7142 181.373 14.5692C173.686 32.2812 166.573 49.7672 158.243 66.6532C157.036 69.0982 149.99 68.6602 145.646 69.5562L143.477 65.8622C151.783 47.4322 160.089 29.0022 168.868 9.52315Z" fill="#808285"/>
<path d="M185.699 130.526C185.648 127.032 185.592 123.15 185.539 119.526C206.429 119.995 226.789 120.452 248.069 120.93C248.209 124.44 248.359 128.22 248.588 133.935C227.322 132.782 207.087 131.686 185.699 130.526Z" fill="#808285"/>
<path d="M10.4336 81.6727C12.9806 68.9667 18.5836 68.4187 27.2286 72.7067C41.8496 79.9567 56.8646 86.4097 72.2826 93.4577C70.6116 97.9057 69.2686 101.484 67.4106 106.428C47.9706 97.9817 29.2016 89.8277 10.4336 81.6727Z" fill="#808285"/>
<path d="M120.309 1.91495C126.769 1.64495 130.281 1.49895 136.346 1.24695C134.963 22.782 133.667 42.9389 132.317 63.956C128.825 64.083 124.666 64.236 120.821 64.377C120.642 42.56 120.479 22.6209 120.309 1.91495Z" fill="#808285"/>
<path d="M185.017 108.176C178.843 99.6043 179.009 95.0583 189.312 91.7613C205.317 86.6403 220.787 79.8523 237.145 73.5153C238.987 78.2013 240.378 81.7413 241.925 85.6763C239.461 87.0133 237.706 88.2373 235.766 88.9773C218.999 95.3763 202.2 101.689 185.017 108.176Z" fill="#808285"/>
</g>
</g>
</g>
<defs>
<clipPath id="clip0_3017_3221">
<rect width="252" height="135" fill="white"/>
</clipPath>
</defs>
</svg>
