<svg width="45" height="62" viewBox="0 0 45 62" fill="none" xmlns="http://www.w3.org/2000/svg">
<path d="M18.5391 12.333C26.3731 11.451 31.0621 8.03505 31.2981 4.95911e-05C32.5351 2.97105 33.0951 6.62405 35.2021 8.72005C37.2641 10.771 40.9031 11.234 44.7371 12.744C36.3311 12.897 31.9861 16.805 31.3881 25.05C30.7061 16.947 26.7691 12.688 18.5391 12.333Z" fill="#D1D1D1"/>
<path d="M0 43.166C11.506 41.87 18.394 36.853 18.74 25.05C20.558 29.415 21.381 34.78 24.476 37.858C27.504 40.871 32.849 41.552 38.48 43.769C26.133 43.995 19.752 49.734 18.873 61.845C17.871 49.943 12.089 43.687 0 43.166Z" fill="#D1D1D1"/>
</svg>
