<svg width="167" height="243" viewBox="0 0 167 243" fill="none" xmlns="http://www.w3.org/2000/svg">
<g clip-path="url(#clip0_3017_3245)">
<g opacity="0.300003">
<path d="M92.7994 193.416C90.7614 218.693 109.601 240.835 134.879 242.873C160.153 244.911 182.291 226.073 184.33 200.796C184.46 199.18 184.503 197.576 184.469 195.991L93.4544 188.564C93.1584 190.147 92.9324 191.769 92.7994 193.416Z" fill="#878787"/>
<g style="mix-blend-mode:multiply">
<mask id="mask0_3017_3245" style="mask-type:luminance" maskUnits="userSpaceOnUse" x="-1" y="64" width="100" height="100">
<path d="M-0.339844 155.796L91.1602 163.196L98.5602 71.6958L7.06018 64.2959L-0.339844 155.796Z" fill="white"/>
</mask>
<g mask="url(#mask0_3017_3245)">
<g opacity="0.899994">
<path d="M94.8693 117.457C92.8313 142.731 70.6903 161.568 45.4153 159.531C20.1383 157.493 1.3013 135.351 3.33831 110.077C5.37631 84.8033 27.5183 65.9653 52.7953 68.0033C78.0693 70.0413 96.9073 92.1833 94.8693 117.457Z" fill="#D1D1D1"/>
</g>
</g>
</g>
<path d="M190.291 49.3312C188.253 74.6052 166.112 93.4422 140.837 91.4042C115.56 89.3662 96.7232 67.2252 98.7602 41.9512C100.798 16.6772 122.94 -2.16077 148.217 -0.122772C173.491 1.91522 192.329 24.0572 190.291 49.3312Z" fill="#D1D1D1"/>
<path d="M142.254 151.342C118.627 149.437 97.7411 165.775 93.4531 188.561L184.464 195.988C183.926 172.772 165.912 153.249 142.254 151.342Z" fill="#D1D1D1"/>
</g>
</g>
<defs>
<clipPath id="clip0_3017_3245">
<rect width="167" height="243" fill="white"/>
</clipPath>
</defs>
</svg>
