<svg width="138" height="241" viewBox="0 0 138 241" fill="none" xmlns="http://www.w3.org/2000/svg">
<g clip-path="url(#clip0_3014_3167)">
<mask id="mask0_3014_3167" style="mask-type:luminance" maskUnits="userSpaceOnUse" x="-25" y="-33" width="217" height="217">
<path d="M-24.4414 73.6959L80.9586 183.996L191.659 78.3961L86.2585 -32.0043L-24.4414 73.6959Z" fill="white"/>
</mask>
<g mask="url(#mask0_3014_3167)">
<g opacity="0.100006">
<path d="M136.102 21.2197C141.894 24.4047 141.444 27.3567 137.136 31.5127C127.676 40.6407 117.777 49.5277 109.657 59.7797C100.012 71.9537 102.457 88.8517 113.377 100.083C121.795 108.742 129.919 117.688 138.144 126.533C138.558 126.979 138.679 127.696 139.055 128.554L133.138 134.204C125.555 126.265 118.062 118.697 110.887 110.836C101.615 100.676 90.7972 93.5827 76.6502 97.1077C70.0672 98.7457 63.7072 102.872 58.2792 107.174C50.2442 113.545 43.0942 121.039 35.6422 128.134C33.3652 130.302 31.4402 132.113 28.4412 128.977C25.5542 125.957 27.1102 123.619 29.2742 121.532C36.3512 114.707 43.3152 107.731 50.7862 101.355C66.8202 87.6727 68.2202 66.1957 53.7032 51.0627C46.8992 43.9697 39.9432 37.0157 33.3462 29.7367C31.1872 27.3547 26.2182 25.1257 31.1402 20.6217C35.9442 16.2277 37.9202 21.1747 40.2422 23.4647C46.7722 29.9067 53.0172 36.6417 59.2712 43.3577C74.1012 59.2827 92.0102 60.5757 108.478 46.3627C116.941 39.0587 124.807 31.0657 132.98 23.4227C133.923 22.5417 135.104 21.9137 136.102 21.2197Z" fill="#808285"/>
<path d="M47.25 85.6694C48.348 88.7104 49.158 90.9524 50.247 93.9694C38.874 98.4754 27.97 102.939 16.904 106.954C15.807 107.353 12.369 105.009 12.375 103.952C12.386 101.9 13.574 98.6684 15.149 98.0064C25.418 93.6954 35.922 89.9434 47.25 85.6694Z" fill="#808285"/>
<path d="M46.742 70.918C46.35 74.42 46.087 76.77 45.54 81.649C32.779 80.772 20.153 79.905 6.83203 78.99C7.24803 75.805 7.55603 73.453 8.04003 69.753C20.447 70.127 33.112 70.508 46.742 70.918Z" fill="#808285"/>
<path d="M74.1883 39.0287C71.6733 40.3187 69.5593 41.4027 66.5303 42.9567C61.7503 30.6827 57.1223 18.8047 52.2773 6.36666C55.1653 5.23266 57.3543 4.37267 60.5803 3.10566C65.1693 15.2197 69.6083 26.9367 74.1883 39.0287Z" fill="#808285"/>
<path d="M110.803 4.76213C113.683 5.92313 115.717 6.74413 118.573 7.89713C113.797 18.9021 109.377 29.7671 104.201 40.2581C103.452 41.7781 99.0733 41.5051 96.3743 42.0621L95.0273 39.7671C100.188 28.3161 105.349 16.8651 110.803 4.76213Z" fill="#808285"/>
<path d="M121.259 79.9451C121.227 77.7751 121.192 75.3621 121.16 73.1111C134.139 73.4021 146.79 73.6861 160.012 73.9831C160.099 76.1641 160.192 78.5121 160.334 82.0631C147.121 81.3471 134.548 80.6661 121.259 79.9451Z" fill="#808285"/>
<path d="M48.8477 144.464C53.9067 132.848 58.4347 122.007 63.3797 111.36C64.9117 108.061 66.8897 108.525 72.4107 113.03C67.3517 124.173 62.2237 135.465 56.8807 147.232C54.4687 146.401 52.2557 145.638 48.8477 144.464Z" fill="#808285"/>
<path d="M12.3594 49.5913C13.9424 41.6953 17.4234 41.3563 22.7954 44.0203C31.8794 48.5253 41.2084 52.5343 50.7884 56.9133C49.7504 59.6773 48.9154 61.9003 47.7614 64.9723C35.6824 59.7243 24.0204 54.6573 12.3594 49.5913Z" fill="#808285"/>
<path d="M86.5868 111.655C86.4448 126.596 86.3268 139.164 86.1948 153.02C83.2718 152.721 80.9488 152.484 77.8398 152.166C77.9738 140.088 77.8248 128.398 78.5558 116.764C78.6578 115.139 83.0868 113.787 86.5868 111.655Z" fill="#808285"/>
<path d="M151.783 110.916C139.781 105.486 128.509 100.388 117.328 95.3286C118.76 87.2726 119.242 87.0596 126.055 90.0506C135.579 94.2326 145.158 98.2896 155.281 102.645C154.046 105.565 153.13 107.73 151.783 110.916Z" fill="#808285"/>
<path d="M80.6289 0.034359C84.6429 -0.13364 86.8249 -0.224644 90.5929 -0.380642C89.7339 12.9994 88.9289 25.5244 88.0899 38.5824C85.9199 38.6614 83.3359 38.7564 80.9469 38.8444C80.8359 25.2884 80.7339 12.8994 80.6289 0.034359Z" fill="#808285"/>
<path d="M93.3047 113.208C101.084 108.727 101.406 108.856 103.958 115.796C107.552 125.567 111.224 135.312 115.059 145.596C112.345 146.621 110.155 147.448 107.28 148.534C102.534 136.538 97.9867 125.043 93.3047 113.208Z" fill="#808285"/>
<path d="M120.834 66.0582C116.998 60.7322 117.101 57.9082 123.503 55.8602C133.447 52.6772 143.059 48.4602 153.223 44.5232C154.367 47.4342 155.232 49.6332 156.193 52.0792C154.662 52.9102 153.571 53.6692 152.366 54.1292C141.948 58.1062 131.51 62.0282 120.834 66.0582Z" fill="#808285"/>
</g>
</g>
<path d="M112.307 151.124V193.241C112.307 196.71 112.698 199.76 113.482 202.387C114.263 205.017 115.382 207.198 116.837 208.931C118.29 210.667 120.109 211.98 122.291 212.874C124.473 213.77 127.015 214.217 129.926 214.217C132.721 214.217 135.212 213.77 137.393 212.874C139.574 211.98 141.42 210.638 142.93 208.847C144.44 207.059 145.586 204.849 146.37 202.219C147.151 199.592 147.545 196.598 147.545 193.241V151.124H175.231V191.731C175.231 199.34 174.167 206.191 172.043 212.287C169.917 218.385 166.867 223.558 162.898 227.808C158.926 232.061 154.115 235.333 148.468 237.624C142.817 239.916 136.47 241.064 129.422 241.064C122.375 241.064 116.025 239.916 110.377 237.624C104.727 235.333 99.9163 232.061 95.9473 227.808C91.9753 223.558 88.9253 218.385 86.8023 212.287C84.6753 206.191 83.6133 199.34 83.6133 191.731V151.124H112.307Z" fill="#942320"/>
<path d="M105.937 76.0029C105.937 88.6609 95.6757 98.9219 83.0167 98.9219C70.3587 98.9219 60.0977 88.6609 60.0977 76.0029C60.0977 63.3449 70.3587 53.0829 83.0167 53.0829C95.6757 53.0829 105.937 63.3449 105.937 76.0029Z" fill="#FDCF96"/>
<path d="M3.64453 105.759C3.64453 93.1007 13.9055 82.8397 26.5645 82.8397C39.2225 82.8397 49.4835 93.1007 49.4835 105.759C49.4835 118.417 39.2225 128.679 26.5645 128.679C13.9055 128.679 3.64453 118.417 3.64453 105.759Z" fill="#D8816C"/>
<path d="M74.7929 119.711C62.9599 119.711 53.2239 128.679 52.0039 140.188L97.5869 140.232C96.3879 128.702 86.6409 119.711 74.7929 119.711Z" fill="#95AA8C"/>
<mask id="mask1_3014_3167" style="mask-type:luminance" maskUnits="userSpaceOnUse" x="51" y="140" width="47" height="26">
<path d="M51.8594 142.646C51.8594 155.246 62.1593 165.547 74.7593 165.547C87.4593 165.547 97.7593 155.246 97.7593 142.646C97.7593 141.846 97.6593 141.047 97.5593 140.247L51.9594 140.146C51.9594 140.946 51.8594 141.846 51.8594 142.646Z" fill="white"/>
</mask>
<g mask="url(#mask1_3014_3167)">
<path d="M-1013.94 -540.453H138.059V8992.9H-1013.94V-540.453Z" fill="url(#paint0_linear_3014_3167)"/>
</g>
</g>
<defs>
<linearGradient id="paint0_linear_3014_3167" x1="51.8736" y1="152.869" x2="97.7128" y2="152.869" gradientUnits="userSpaceOnUse">
<stop stop-color="#C4C6C8"/>
<stop offset="0.0261905" stop-color="#C8CACB"/>
<stop offset="0.1" stop-color="#DADBDD"/>
<stop offset="0.182143" stop-color="#F1F1F2"/>
<stop offset="0.408333" stop-color="#EEEEEF"/>
<stop offset="0.488095" stop-color="#DEDFE0"/>
<stop offset="0.583333" stop-color="#D1D3D4"/>
<stop offset="0.690476" stop-color="#C9CBCD"/>
<stop offset="0.821429" stop-color="#C5C7C9"/>
<stop offset="1" stop-color="#C4C6C8"/>
</linearGradient>
<clipPath id="clip0_3014_3167">
<rect width="138" height="241" fill="white"/>
</clipPath>
</defs>
</svg>
