<svg width="208" height="186" viewBox="0 0 208 186" fill="none" xmlns="http://www.w3.org/2000/svg">
<g clip-path="url(#clip0_3017_3258)">
<path d="M108.724 150.002C108.526 144.853 111.097 140.074 115.247 137.876L138.74 125.433L139.839 120.152C140.273 116.707 139.439 113.211 137.529 110.471L104.901 81.5221C98.3736 74.3341 93.8556 74.9791 86.8146 81.7371L54.4516 111.875C52.7936 114.36 51.9966 117.437 52.2096 120.533L53.3136 126.788L73.6906 138.953L85.3676 175.752L76.1116 182.992L84.6266 187.243C87.1926 188.523 90.0886 188.695 92.7596 187.725L110.664 181.218C110.132 179.819 109.81 178.311 109.75 176.746L108.724 150.002Z" fill="#DDA552"/>
<path d="M184.511 144.588L175.598 120.682C173.091 113.961 166.1 110.943 160.231 114.051L138.74 125.433L133.722 165.281C133.112 170.127 130.095 174.157 125.95 175.664L110.664 181.218C111.619 183.732 113.27 185.878 115.442 187.281C123.78 192.668 138.879 202.349 139.698 202.349C140.52 202.349 150.917 198.541 156.616 196.43C159.005 195.545 161.057 193.8 162.468 191.46L183.434 156.71C185.592 153.133 185.997 148.574 184.511 144.588Z" fill="#DDA552"/>
<path d="M133.719 165.281L138.737 125.433L115.245 137.876C111.094 140.074 108.524 144.853 108.722 150.002L109.748 176.746C109.808 178.311 110.129 179.82 110.661 181.219L125.947 175.664C130.092 174.157 133.109 170.127 133.719 165.281Z" fill="#FFF0D9"/>
<path d="M55.9783 165.592L53.3143 126.789L36.5603 116.787C31.3303 113.665 24.8423 115.565 21.6363 121.159L-0.261719 159.357L21.4703 193.969L49.0403 204.171L76.1123 182.993L62.7093 176.301C58.8843 174.392 56.3003 170.28 55.9783 165.592Z" fill="#DDA552"/>
<path d="M73.6895 138.953L53.3125 126.788L55.9765 165.591C56.2975 170.279 58.8825 174.391 62.7075 176.301L76.1105 182.992L85.3665 175.751L73.6895 138.953Z" fill="#FFF0D9"/>
<path d="M76.8797 37.0399C64.5507 40.6249 57.1367 48.5869 53.6657 60.8949C53.0567 63.0519 50.0597 63.0689 49.4227 60.9199C45.5337 47.7939 37.0557 39.5129 22.1247 37.1259C19.8667 36.7649 19.5857 33.6229 21.7477 32.8769C29.7097 30.1319 36.5517 28.0059 41.0217 23.5189C45.2747 19.2489 47.2087 12.6669 49.5387 5.26193C50.2227 3.08593 53.3827 3.25093 53.7977 5.49393C56.4137 19.6309 63.8727 28.7689 76.9177 32.8279C79.0137 33.4799 78.9877 36.4269 76.8797 37.0399Z" fill="#DDA552"/>
<path d="M29.8955 72.6121C31.6895 77.1951 34.8655 80.3921 39.3885 82.4321C41.7005 83.4751 41.7415 86.6851 39.4595 87.7921C35.3235 89.7981 32.0755 92.6661 29.9715 96.8171C28.8635 99.0021 25.8225 99.0151 24.6865 96.8441C22.3895 92.4561 18.7545 89.4871 13.7415 87.6651C11.2325 86.7531 11.2035 83.2121 13.6705 82.1911C19.3605 79.8361 21.5785 77.7371 24.5745 72.2481C25.7725 70.0521 28.9835 70.2831 29.8955 72.6121Z" fill="#FFF0D9"/>
<path d="M162.595 38.1867C157.711 27.5797 161.325 15.2497 170.585 8.80273C159.834 -0.554276 144.202 -3.33427 130.415 3.01273C111.667 11.6447 103.466 33.8407 112.098 52.5887C120.73 71.3377 142.926 79.5397 161.675 70.9077C170.417 66.8827 176.827 59.8917 180.345 51.6927C172.821 50.4607 166.024 45.6337 162.595 38.1867Z" fill="#DDA552"/>
<path d="M174.233 6.69044C172.93 7.29044 171.723 8.00944 170.586 8.80244C174.455 12.1704 177.708 16.3674 179.993 21.3304C184.6 31.3364 184.374 42.3084 180.346 51.6924C184.857 52.4314 189.628 51.8794 194.092 49.8234C206.003 44.3394 211.213 30.2384 205.729 18.3274C200.245 6.41744 186.144 1.20644 174.233 6.69044Z" fill="#DDA552"/>
<path d="M179.993 21.3304C177.708 16.3684 174.455 12.1704 170.586 8.80236C161.326 15.2504 157.712 27.5794 162.596 38.1864C166.024 45.6334 172.822 50.4604 180.346 51.6934C184.374 42.3094 184.6 31.3374 179.993 21.3304Z" fill="#FFF0D9"/>
</g>
<defs>
<clipPath id="clip0_3017_3258">
<rect width="208" height="186" fill="white"/>
</clipPath>
</defs>
</svg>
